<svg viewBox="0 0 18 18" fill="none" xmlns="http://www.w3.org/2000/svg" preserveAspectRatio="none">
<path d="M16.4439 0H1.55605C0.698027 0 0 0.698027 0 1.55605V16.4439C0 17.302 0.698027 18 1.55605 18H16.4439C17.302 18 18 17.302 18 16.4439V1.55605C18 0.698027 17.302 0 16.4439 0ZM1.55605 1.05469H16.4439C16.7204 1.05469 16.9453 1.27958 16.9453 1.55605V3.13808H1.05469V1.55605C1.05469 1.27958 1.27958 1.05469 1.55605 1.05469ZM16.4439 16.9453H1.55605C1.27958 16.9453 1.05469 16.7204 1.05469 16.4439V4.19277H16.9453V16.4439C16.9453 16.7204 16.7204 16.9453 16.4439 16.9453Z" fill="#767676"/>
<path d="M2.28904 2.61938H3.00978C3.30101 2.61938 3.53712 2.38327 3.53712 2.09203C3.53712 1.8008 3.30101 1.56469 3.00978 1.56469H2.28904C1.9978 1.56469 1.7617 1.8008 1.7617 2.09203C1.7617 2.38327 1.9978 2.61938 2.28904 2.61938Z" fill="#767676"/>
<path d="M4.53904 2.61938H5.25978C5.55101 2.61938 5.78712 2.38327 5.78712 2.09203C5.78712 1.8008 5.55101 1.56469 5.25978 1.56469H4.53904C4.24781 1.56469 4.0117 1.8008 4.0117 2.09203C4.0117 2.38327 4.24781 2.61938 4.53904 2.61938Z" fill="#767676"/>
<path d="M6.78904 2.61938H7.50978C7.80101 2.61938 8.03712 2.38327 8.03712 2.09203C8.03712 1.8008 7.80101 1.56469 7.50978 1.56469H6.78904C6.49781 1.56469 6.2617 1.8008 6.2617 2.09203C6.2617 2.38327 6.49781 2.61938 6.78904 2.61938Z" fill="#767676"/>
<path d="M2.46589 10.0068H15.5417C15.8329 10.0068 16.069 9.77072 16.069 9.47949V5.6123C16.069 5.32107 15.8329 5.08496 15.5417 5.08496H2.46589C2.17466 5.08496 1.93855 5.32107 1.93855 5.6123V9.47949C1.93855 9.77072 2.17466 10.0068 2.46589 10.0068ZM2.99324 6.13965H15.0143V8.95215H2.99324V6.13965Z" fill="#4AD270"/>
<path d="M14.5113 11.4131C14.5113 11.1218 14.2752 10.8857 13.984 10.8857H2.46589C2.17466 10.8857 1.93855 11.1218 1.93855 11.4131C1.93855 11.7043 2.17466 11.9404 2.46589 11.9404H13.984C14.2752 11.9404 14.5113 11.7043 14.5113 11.4131Z" fill="#4AD270"/>
<path d="M2.46589 13.7686H7.19585C7.48708 13.7686 7.72319 13.5324 7.72319 13.2412C7.72319 12.95 7.48708 12.7139 7.19585 12.7139H2.46589C2.17466 12.7139 1.93855 12.95 1.93855 13.2412C1.93855 13.5324 2.17466 13.7686 2.46589 13.7686Z" fill="#4AD270"/>
<path d="M12.4205 14.5411H2.34766C2.05642 14.5411 1.82031 14.7772 1.82031 15.0684C1.82031 15.3597 2.05642 15.5958 2.34766 15.5958H12.4205C12.7118 15.5958 12.9479 15.3597 12.9479 15.0684C12.9479 14.7772 12.7118 14.5411 12.4205 14.5411Z" fill="#4AD270"/>
<path d="M15.5478 14.5411H14.5116C14.2203 14.5411 13.9842 14.7772 13.9842 15.0684C13.9842 15.3597 14.2203 15.5958 14.5116 15.5958H15.5478C15.839 15.5958 16.0751 15.3597 16.0751 15.0684C16.0751 14.7772 15.839 14.5411 15.5478 14.5411Z" fill="#4AD270"/>
</svg>
