<svg width="9" height="13" viewBox="0 0 9 13" fill="none" xmlns="http://www.w3.org/2000/svg">
<path d="M8.74407 3.23558C8.6978 3.06215 8.60383 2.87735 8.53431 2.71556C7.70247 0.716444 5.88491 0 4.41733 0C2.4527 0 0.288887 1.31737 0 4.03278V4.58755C0 4.6107 0.0079793 4.81868 0.0193135 4.92271C0.181257 6.21681 1.2024 7.59215 1.96502 8.88625C2.7855 10.2727 3.63687 11.6367 4.48035 13C5.00045 12.1103 5.51868 11.2089 6.02694 10.3423C6.16546 10.0879 6.32625 9.83373 6.46493 9.59097C6.55735 9.42932 6.73392 9.26768 6.81459 9.11729C7.63504 7.61515 8.95565 6.10141 8.95565 4.61067V3.99826C8.95568 3.83665 8.75535 3.27042 8.74407 3.23558ZM4.4533 6.02053C3.87579 6.02053 3.24368 5.73177 2.93167 4.93429C2.88518 4.80735 2.88893 4.55295 2.88893 4.52964V4.17142C2.88893 3.15479 3.75214 2.69247 4.50311 2.69247C5.42762 2.69247 6.14264 3.43213 6.14264 4.35664C6.14264 5.28112 5.37781 6.02053 4.4533 6.02053Z" fill="currentColor"/>
</svg>
