<svg width="13" height="13" viewBox="0 0 13 13" fill="none" xmlns="http://www.w3.org/2000/svg">
<path d="M12.7086 10.2591L10.7009 8.25126C10.301 7.85298 9.63881 7.86508 9.22499 8.27904L8.21353 9.29028C8.14963 9.25506 8.08349 9.21827 8.01395 9.17924C7.37522 8.82533 6.50101 8.34026 5.58109 7.41966C4.65844 6.49713 4.17292 5.62158 3.81792 4.98244C3.78046 4.91473 3.74457 4.84944 3.70913 4.78744L4.38797 4.10961L4.72171 3.77546C5.13616 3.3609 5.14759 2.69886 4.74864 2.29943L2.74099 0.29133C2.34204 -0.107547 1.67952 -0.0954465 1.26507 0.319117L0.699244 0.88819L0.714706 0.90354C0.524978 1.14563 0.366435 1.42485 0.248453 1.72595C0.139695 2.01255 0.0719828 2.28606 0.0410212 2.56012C-0.224076 4.75783 0.780215 6.76637 3.50573 9.49192C7.27322 13.2592 10.3093 12.9746 10.4403 12.9607C10.7256 12.9266 10.999 12.8584 11.2768 12.7505C11.5753 12.6339 11.8543 12.4756 12.0962 12.2863L12.1086 12.2973L12.6818 11.7359C13.0954 11.3215 13.1073 10.6592 12.7086 10.2591Z" fill="#4AD270"/>
</svg>
