<svg width="13" height="15" viewBox="0 0 13 15" fill="none" xmlns="http://www.w3.org/2000/svg">
<path d="M6.44638 8.08242C6.46192 8.08242 6.47745 8.08242 6.49608 8.08242C6.5023 8.08242 6.50851 8.08242 6.51472 8.08242C6.52404 8.08242 6.53647 8.08242 6.54578 8.08242C7.45591 8.06689 8.19209 7.74695 8.73568 7.13502C9.93157 5.78691 9.73277 3.47588 9.71103 3.25533C9.63338 1.59971 8.85061 0.807621 8.20451 0.437979C7.72305 0.161524 7.16082 0.0124249 6.53336 0H6.51162C6.50851 0 6.5023 0 6.49919 0H6.48055C6.13576 0 5.4586 0.0559122 4.8094 0.425554C4.15709 0.795196 3.3619 1.58729 3.28424 3.25533C3.2625 3.47588 3.0637 5.78691 4.2596 7.13502C4.80008 7.74695 5.53626 8.06689 6.44638 8.08242ZM4.11361 3.33299C4.11361 3.32367 4.11671 3.31435 4.11671 3.30814C4.21922 1.08097 5.80029 0.841789 6.47745 0.841789H6.48987C6.49608 0.841789 6.5054 0.841789 6.51472 0.841789C7.3534 0.860427 8.77916 1.20211 8.87546 3.30814C8.87546 3.31746 8.87546 3.32678 8.87856 3.33299C8.88167 3.35473 9.0991 5.46697 8.11132 6.579C7.71994 7.02009 7.19809 7.23752 6.51162 7.24374C6.5054 7.24374 6.5023 7.24374 6.49608 7.24374C6.48987 7.24374 6.48677 7.24374 6.48055 7.24374C5.79718 7.23752 5.27223 7.02009 4.88395 6.579C3.89928 5.47318 4.1105 3.35163 4.11361 3.33299Z" fill="white"/>
<path d="M12.8792 11.9155C12.8792 11.9124 12.8792 11.9092 12.8792 11.9061C12.8792 11.8813 12.8761 11.8564 12.8761 11.8285C12.8575 11.2135 12.8171 9.77527 11.469 9.31555C11.4597 9.31244 11.4473 9.30933 11.4379 9.30623C10.037 8.94901 8.8722 8.14139 8.85977 8.13207C8.67029 7.99851 8.40937 8.0451 8.2758 8.23458C8.14223 8.42406 8.18883 8.68498 8.37831 8.81855C8.43111 8.85582 9.66739 9.71625 11.2143 10.1138C11.9381 10.3717 12.0188 11.1451 12.0406 11.8533C12.0406 11.8813 12.0406 11.9061 12.0437 11.931C12.0468 12.2106 12.0281 12.6423 11.9784 12.8908C11.4752 13.1766 9.50276 14.1644 6.50214 14.1644C3.51395 14.1644 1.52906 13.1735 1.02275 12.8877C0.973047 12.6392 0.951303 12.2074 0.957516 11.9279C0.957516 11.903 0.960622 11.8782 0.960622 11.8502C0.982366 11.142 1.06313 10.3686 1.78688 10.1107C3.33378 9.71314 4.57007 8.84961 4.62287 8.81544C4.81235 8.68188 4.85894 8.42095 4.72538 8.23147C4.59181 8.04199 4.33089 7.9954 4.14141 8.12897C4.12898 8.13829 2.97036 8.94591 1.56323 9.30312C1.55081 9.30623 1.54149 9.30933 1.53217 9.31244C0.184064 9.77527 0.143683 11.2135 0.125045 11.8254C0.125045 11.8533 0.125045 11.8782 0.121939 11.903C0.121939 11.9061 0.121939 11.9092 0.121939 11.9124C0.118833 12.0739 0.115727 12.9032 0.280357 13.3195C0.311419 13.4002 0.367332 13.4686 0.441881 13.5152C0.535068 13.5773 2.76845 14.9999 6.50525 14.9999C10.242 14.9999 12.4754 13.5742 12.5686 13.5152C12.6401 13.4686 12.6991 13.4002 12.7301 13.3195C12.8855 12.9063 12.8823 12.077 12.8792 11.9155Z" fill="white"/>
</svg>
